<?xml version="1.0" encoding="utf-8"?>

<!DOCTYPE svg PUBLIC "-//W3C//DTD SVG 1.1//EN" "http://www.w3.org/Graphics/SVG/1.1/DTD/svg11.dtd">
<svg version="1.1" id="Layer_1" xmlns="http://www.w3.org/2000/svg" xmlns:xlink="http://www.w3.org/1999/xlink" x="0px" y="0px"
	 viewBox="0 0 1748.006 1673.348" enable-background="new 0 0 1748.006 1673.348" xml:space="preserve">
<g>
	<path stroke="#000000" stroke-width="0.204" d="M127.3,389.426C376.182,271.829,625.15,154.341,874.01,36.679
		c248.816,117.706,497.763,235.15,746.645,352.769c-0.152,19.215,0.435,38.474-0.348,57.689
		c-497.567-0.174-995.134-0.174-1492.701-0.022C126.909,427.9,127.431,408.663,127.3,389.426z"/>
	<path stroke="#000000" stroke-width="0.204" d="M271.293,473.446c401.818-0.131,803.615-0.131,1205.411,0
		c-0.37,31.38-0.13,62.759-0.13,94.138c-242.919,0.5-485.86,0.065-728.779,0.218c-158.791-0.152-317.603,0.283-476.394-0.239
		C271.446,536.205,271.641,504.825,271.293,473.446z"/>
	<path stroke="#000000" stroke-width="0.204" d="M326.284,594.22c45.437-0.065,90.874-0.065,136.333,0
		c6.964,244.399,14.145,488.797,20.847,733.196c-58.516-0.043-117.031,0-175.525-0.022
		C314.228,1082.996,320.278,838.619,326.284,594.22z"/>
	<path stroke="#000000" stroke-width="0.204" d="M1282.748,594.155c45.459,0.109,90.94-0.109,136.42,0.109
		c6.702,244.377,13.796,488.754,20.891,733.131c-58.516,0.065-117.009,0-175.503,0.044
		C1270.366,1082.996,1276.764,838.575,1282.748,594.155z"/>
	<path stroke="#000000" stroke-width="0.204" d="M197.85,1353.769c450.781-0.109,901.54-0.109,1352.321,0
		c-0.283,31.358-0.044,62.737-0.13,94.095c27.005,0.109,54.011,0.109,81.016,0c-0.109,31.445-0.109,62.911,0,94.356
		c26.2,0,52.401-0.044,78.601,0.022c0.065,31.466,0.065,62.911,0,94.378c-557.105,0.087-1114.189,0.065-1671.295,0.022
		c-0.065-31.467-0.109-62.933,0.022-94.4c26.2-0.044,52.401-0.044,78.601,0c0.065-31.467,0.065-62.933-0.022-94.378
		c27.006,0.131,54.011,0.109,81.016,0.022C197.893,1416.506,198.133,1385.127,197.85,1353.769z"/>
	<polygon points="964.993,594.228 1101.261,594.185 1122.173,1327.403 946.605,1327.403 	"/>
	<polygon points="645.127,594.163 781.591,594.293 802.525,1327.424 626.739,1327.12 	"/>
</g>
</svg>
