<?xml version="1.0" encoding="utf-8"?>
<!-- Generator: Adobe Illustrator 17.0.0, SVG Export Plug-In . SVG Version: 6.00 Build 0)  -->
<!DOCTYPE svg PUBLIC "-//W3C//DTD SVG 1.1//EN" "http://www.w3.org/Graphics/SVG/1.1/DTD/svg11.dtd">
<svg version="1.1" id="Layer_1" xmlns="http://www.w3.org/2000/svg" xmlns:xlink="http://www.w3.org/1999/xlink" x="0px" y="0px"
	 width="125px" height="125px" viewBox="0 0 125 125" enable-background="new 0 0 125 125" xml:space="preserve">
<path fill-rule="evenodd" clip-rule="evenodd" fill="#5D9BD3" d="M28.974,15.149c0,0.094,0.305,0.17,0.681,0.17
	c0.376,0,0.681-0.076,0.681-0.17v9.198c0,0.094-0.305,0.17-0.681,0.17c-0.376,0-0.681-0.076-0.681-0.17V15.149z"/>
<path fill-rule="evenodd" clip-rule="evenodd" fill="#9DC3E5" d="M28.974,15.149c0-0.094,0.305-0.17,0.681-0.17
	c0.376,0,0.681,0.076,0.681,0.17c0,0.094-0.305,0.17-0.681,0.17C29.279,15.32,28.974,15.243,28.974,15.149L28.974,15.149z"/>
<path fill="none" stroke="#43729D" stroke-width="0.24" stroke-miterlimit="8" d="M30.337,15.149c0,0.094-0.305,0.17-0.681,0.17
	c-0.376,0-0.681-0.076-0.681-0.17c0-0.094,0.305-0.17,0.681-0.17C30.032,14.979,30.337,15.055,30.337,15.149L30.337,15.149z
	 M30.337,15.149v9.198c0,0.094-0.305,0.17-0.681,0.17c-0.376,0-0.681-0.076-0.681-0.17v-9.198"/>
<polygon fill-rule="evenodd" clip-rule="evenodd" fill="#5D9BD3" points="18.755,40.868 39.421,40.868 39.421,72.435 18.755,72.435 
	18.755,40.868 "/>
<polygon fill="none" stroke="#43729D" stroke-width="0.96" stroke-miterlimit="8" points="18.755,40.868 39.421,40.868 
	39.421,72.435 18.755,72.435 18.755,40.868 "/>
<polygon fill-rule="evenodd" clip-rule="evenodd" fill="#5D9BD3" points="23.751,31.33 35.787,31.33 35.787,40.187 23.751,40.187 
	23.751,31.33 "/>
<polygon fill="none" stroke="#43729D" stroke-width="0.96" stroke-miterlimit="8" points="23.751,31.33 35.787,31.33 35.787,40.187 
	23.751,40.187 23.751,31.33 "/>
<polygon fill-rule="evenodd" clip-rule="evenodd" fill="#5D9BD3" points="26.249,21.792 33.062,21.792 33.062,30.422 26.249,30.422 
	26.249,21.792 "/>
<polygon fill="none" stroke="#43729D" stroke-width="0.96" stroke-miterlimit="8" points="26.249,21.792 33.062,21.792 
	33.062,30.422 26.249,30.422 26.249,21.792 "/>
<polygon fill-rule="evenodd" clip-rule="evenodd" fill="#5D9BD3" points="68.263,79.93 75.076,79.93 75.076,101.277 68.263,101.277 
	68.263,79.93 "/>
<polygon fill="none" stroke="#43729D" stroke-width="0.96" stroke-miterlimit="8" points="68.263,79.93 75.076,79.93 
	75.076,101.277 68.263,101.277 68.263,79.93 "/>
<polygon fill-rule="evenodd" clip-rule="evenodd" fill="#5D9BD3" points="86.658,79.93 93.471,79.93 93.471,101.277 86.658,101.277 
	86.658,79.93 "/>
<polygon fill="none" stroke="#43729D" stroke-width="0.96" stroke-miterlimit="8" points="86.658,79.93 93.471,79.93 
	93.471,101.277 86.658,101.277 86.658,79.93 "/>
<polygon fill-rule="evenodd" clip-rule="evenodd" fill="#5D9BD3" points="56.908,72.208 93.471,72.208 93.471,79.93 56.908,79.93 
	56.908,72.208 "/>
<polygon fill="none" stroke="#43729D" stroke-width="0.96" stroke-miterlimit="8" points="56.908,72.208 93.471,72.208 
	93.471,79.93 56.908,79.93 56.908,72.208 "/>
<polygon fill-rule="evenodd" clip-rule="evenodd" fill="#5D9BD3" points="93.471,27.015 119.36,27.015 119.36,101.277 
	93.471,101.277 93.471,27.015 "/>
<polygon fill="none" stroke="#43729D" stroke-width="0.96" stroke-miterlimit="8" points="93.471,27.015 119.36,27.015 
	119.36,101.277 93.471,101.277 93.471,27.015 "/>
<polygon fill-rule="evenodd" clip-rule="evenodd" fill="#FFFFFF" points="101.192,34.964 111.412,34.964 111.412,44.502 
	101.192,44.502 101.192,34.964 "/>
<polygon fill="none" stroke="#43729D" stroke-width="0.96" stroke-miterlimit="8" points="101.192,34.964 111.412,34.964 
	111.412,44.502 101.192,44.502 101.192,34.964 "/>
<polygon fill-rule="evenodd" clip-rule="evenodd" fill="#FFFFFF" points="101.192,52.223 111.412,52.223 111.412,61.989 
	101.192,61.989 101.192,52.223 "/>
<polygon fill="none" stroke="#43729D" stroke-width="0.96" stroke-miterlimit="8" points="101.192,52.223 111.412,52.223 
	111.412,61.989 101.192,61.989 101.192,52.223 "/>
<polygon fill-rule="evenodd" clip-rule="evenodd" fill="#5D9BD3" points="50.095,72.435 43.793,97.643 15.519,97.643 9.217,72.435 
	50.095,72.435 "/>
<polygon fill="none" stroke="#43729D" stroke-width="0.96" stroke-miterlimit="8" points="50.095,72.435 43.793,97.643 
	15.519,97.643 9.217,72.435 50.095,72.435 "/>
<polygon fill-rule="evenodd" clip-rule="evenodd" fill="#F3B183" points="9.217,52.179 21.026,52.179 21.026,72.164 9.217,72.164 
	9.217,52.179 "/>
<polygon fill="none" stroke="#C55C28" stroke-width="0.96" stroke-miterlimit="8" points="9.217,52.179 21.026,52.179 
	21.026,72.164 9.217,72.164 9.217,52.179 "/>
<line fill="none" stroke="#C55C28" stroke-width="0.48" stroke-miterlimit="8" x1="15.121" y1="52.179" x2="15.122" y2="72.051"/>
<line fill="none" stroke="#C55C28" stroke-width="0.48" stroke-miterlimit="8" x1="12.623" y1="52.179" x2="12.623" y2="72.051"/>
<line fill="none" stroke="#C55C28" stroke-width="0.48" stroke-miterlimit="8" x1="18.074" y1="51.952" x2="18.074" y2="71.824"/>
<polygon fill-rule="evenodd" clip-rule="evenodd" fill="#E2F0DA" points="23.751,52.179 35.56,52.179 35.56,72.164 23.751,72.164 
	23.751,52.179 "/>
<polygon fill="none" stroke="#55833B" stroke-width="0.96" stroke-miterlimit="8" points="23.751,52.179 35.56,52.179 35.56,72.164 
	23.751,72.164 23.751,52.179 "/>
<line fill="none" stroke="#55833B" stroke-width="0.48" stroke-miterlimit="8" x1="29.656" y1="52.179" x2="29.656" y2="72.051"/>
<line fill="none" stroke="#55833B" stroke-width="0.48" stroke-miterlimit="8" x1="27.158" y1="52.179" x2="27.158" y2="72.051"/>
<line fill="none" stroke="#55833B" stroke-width="0.48" stroke-miterlimit="8" x1="32.608" y1="51.952" x2="32.608" y2="71.824"/>
<polygon fill-rule="evenodd" clip-rule="evenodd" fill="#FFF3CD" points="38.286,52.179 50.095,52.179 50.095,72.164 38.286,72.164 
	38.286,52.179 "/>
<polygon fill="none" stroke="#BD912D" stroke-width="0.96" stroke-miterlimit="8" points="38.286,52.179 50.095,52.179 
	50.095,72.164 38.286,72.164 38.286,52.179 "/>
<line fill="none" stroke="#BD912D" stroke-width="0.48" stroke-miterlimit="8" x1="44.19" y1="52.179" x2="44.19" y2="72.051"/>
<line fill="none" stroke="#BD912D" stroke-width="0.48" stroke-miterlimit="8" x1="41.692" y1="52.179" x2="41.692" y2="72.051"/>
<line fill="none" stroke="#BD912D" stroke-width="0.48" stroke-miterlimit="8" x1="47.142" y1="51.952" x2="47.143" y2="71.824"/>
<polygon fill-rule="evenodd" clip-rule="evenodd" fill="#FFFFFF" points="22.389,44.275 25.114,44.275 25.114,47 22.389,47 
	22.389,44.275 "/>
<polygon fill="none" stroke="#43729D" stroke-width="0.48" stroke-miterlimit="8" points="22.389,44.275 25.114,44.275 25.114,47 
	22.389,47 22.389,44.275 "/>
<polygon fill-rule="evenodd" clip-rule="evenodd" fill="#FFFFFF" points="28.52,44.275 31.245,44.275 31.245,47 28.52,47 
	28.52,44.275 "/>
<polygon fill="none" stroke="#43729D" stroke-width="0.48" stroke-miterlimit="8" points="28.52,44.275 31.245,44.275 31.245,47 
	28.52,47 28.52,44.275 "/>
<polygon fill-rule="evenodd" clip-rule="evenodd" fill="#FFFFFF" points="34.425,44.275 37.15,44.275 37.15,47 34.425,47 
	34.425,44.275 "/>
<polygon fill="none" stroke="#43729D" stroke-width="0.48" stroke-miterlimit="8" points="34.425,44.275 37.15,44.275 37.15,47 
	34.425,47 34.425,44.275 "/>
<polygon fill-rule="evenodd" clip-rule="evenodd" fill="#FFFFFF" points="25.341,34.282 28.066,34.282 28.066,37.008 25.341,37.008 
	25.341,34.282 "/>
<polygon fill="none" stroke="#43729D" stroke-width="0.48" stroke-miterlimit="8" points="25.341,34.282 28.066,34.282 
	28.066,37.008 25.341,37.008 25.341,34.282 "/>
<polygon fill-rule="evenodd" clip-rule="evenodd" fill="#FFFFFF" points="31.473,34.282 34.198,34.282 34.198,37.008 31.473,37.008 
	31.473,34.282 "/>
<polygon fill="none" stroke="#43729D" stroke-width="0.48" stroke-miterlimit="8" points="31.473,34.282 34.198,34.282 
	34.198,37.008 31.473,37.008 31.473,34.282 "/>
<polygon fill-rule="evenodd" clip-rule="evenodd" fill="#FFFFFF" points="28.52,24.29 31.245,24.29 31.245,27.015 28.52,27.015 
	28.52,24.29 "/>
<polygon fill="none" stroke="#43729D" stroke-width="0.48" stroke-miterlimit="8" points="28.52,24.29 31.245,24.29 31.245,27.015 
	28.52,27.015 28.52,24.29 "/>
<polygon fill-rule="evenodd" clip-rule="evenodd" fill="#BC5BA3" points="30.674,15.663 34.008,15.421 33.961,16.224 37.153,15.385 
	37.168,16.222 42.054,15.682 37.107,18.366 37.143,17.373 34.017,19.013 33.961,17.802 30.672,19.539 30.674,15.663 "/>
<polygon fill="none" stroke="#43729D" stroke-width="0.25" stroke-miterlimit="8" points="30.674,15.663 34.008,15.421 
	33.961,16.224 37.153,15.385 37.168,16.222 42.054,15.682 37.107,18.366 37.143,17.373 34.017,19.013 33.961,17.802 30.672,19.539 
	30.674,15.663 "/>
<polygon fill-rule="evenodd" clip-rule="evenodd" fill="#FFFFFF" points="70.761,28.832 77.574,28.832 77.574,71.073 70.761,71.073 
	70.761,28.832 "/>
<polygon fill="none" stroke="#43729D" stroke-width="0.24" stroke-miterlimit="8" points="70.761,28.832 77.574,28.832 
	77.574,71.073 70.761,71.073 70.761,28.832 "/>
<polygon fill-rule="evenodd" clip-rule="evenodd" fill="#FFFFFF" points="70.761,71.073 74.167,64.26 77.574,71.073 70.761,71.073 
	"/>
<polygon fill="none" stroke="#43729D" stroke-width="0.24" stroke-miterlimit="8" points="70.761,71.073 74.167,64.26 
	77.574,71.073 70.761,71.073 "/>
<polygon fill-rule="evenodd" clip-rule="evenodd" fill="#FFFFFF" points="77.574,57.22 74.167,64.033 70.761,57.22 77.574,57.22 "/>
<polygon fill="none" stroke="#43729D" stroke-width="0.24" stroke-miterlimit="8" points="77.574,57.22 74.167,64.033 70.761,57.22 
	77.574,57.22 "/>
<polygon fill-rule="evenodd" clip-rule="evenodd" fill="#FFFFFF" points="70.988,57.22 74.394,50.407 77.801,57.22 70.988,57.22 "/>
<polygon fill="none" stroke="#43729D" stroke-width="0.24" stroke-miterlimit="8" points="70.988,57.22 74.394,50.407 77.801,57.22 
	70.988,57.22 "/>
<polygon fill-rule="evenodd" clip-rule="evenodd" fill="#FFFFFF" points="77.801,43.139 74.394,49.952 70.988,43.139 77.801,43.139 
	"/>
<polygon fill="none" stroke="#43729D" stroke-width="0.24" stroke-miterlimit="8" points="77.801,43.139 74.394,49.952 
	70.988,43.139 77.801,43.139 "/>
<polygon fill-rule="evenodd" clip-rule="evenodd" fill="#FFFFFF" points="70.761,42.912 74.167,36.099 77.574,42.912 70.761,42.912 
	"/>
<polygon fill="none" stroke="#43729D" stroke-width="0.24" stroke-miterlimit="8" points="70.761,42.912 74.167,36.099 
	77.574,42.912 70.761,42.912 "/>
<polygon fill-rule="evenodd" clip-rule="evenodd" fill="#FFFFFF" points="77.574,28.832 74.167,35.645 70.761,28.832 77.574,28.832 
	"/>
<polygon fill="none" stroke="#43729D" stroke-width="0.24" stroke-miterlimit="8" points="77.574,28.832 74.167,35.645 
	70.761,28.832 77.574,28.832 "/>
<path fill-rule="evenodd" clip-rule="evenodd" fill="#9DC3E5" d="M57.816,40.868v3.832c0,1.646-1.335,2.981-2.981,2.981h-0.852
	c-1.646,0-2.981-1.334-2.981-2.981v-2.129l0,0h0.754h0.754l0,0v2.129c0,0.814,0.66,1.473,1.473,1.473h0.852
	c0.814,0,1.473-0.66,1.473-1.473v-3.832H57.816L57.816,40.868z"/>
<path fill="none" stroke="#2F76B6" stroke-width="0.24" stroke-miterlimit="8" d="M57.816,40.868v3.832
	c0,1.646-1.335,2.981-2.981,2.981h-0.852c-1.646,0-2.981-1.334-2.981-2.981v-2.129l0,0h0.754h0.754l0,0v2.129
	c0,0.814,0.66,1.473,1.473,1.473h0.852c0.814,0,1.473-0.66,1.473-1.473v-3.832H57.816L57.816,40.868z"/>
<path fill="#DEEAF6" d="M6.946,101.95h16.827c-3.149-1.791-6.352-4.082-8.628-4.297C11.349,97.295,9.147,99.622,6.946,101.95z"/>
<path fill="#DEEAF6" d="M70.261,94.788c-4.067,0.053-6.142,5.661-9.944,7.162h25.887C80.51,98.339,74.816,94.729,70.261,94.788z"/>
<path fill="#DEEAF6" d="M41.564,97.295c-3.012,0.185-5.149,2.731-7.387,4.655h21.654C51.242,100.741,45.488,97.054,41.564,97.295z"
	/>
<path fill="none" stroke="#BDD8EE" stroke-width="0.72" stroke-miterlimit="8" d="M6.832,100.876
	c2.202-2.328,4.403-4.655,8.199-4.297c3.796,0.358,10.173,6.505,14.576,6.445c4.403-0.06,6.984-6.505,11.843-6.804
	c4.859-0.298,12.527,5.431,17.309,5.013c4.783-0.418,6.833-7.46,11.388-7.52c4.555-0.06,10.249,3.551,15.943,7.162"/>
<polygon fill-rule="evenodd" clip-rule="evenodd" fill="#FFFFFF" points="64.175,31.784 64.175,29.059 77.801,29.059 77.801,31.784 
	64.175,31.784 "/>
<polygon fill="none" stroke="#43729D" stroke-width="0.24" stroke-miterlimit="8" points="64.175,31.784 64.175,29.059 
	77.801,29.059 77.801,31.784 64.175,31.784 "/>
<polygon fill-rule="evenodd" clip-rule="evenodd" fill="#FFFFFF" points="77.801,31.784 75.53,30.422 77.801,29.059 77.801,31.784 
	"/>
<polygon fill="none" stroke="#43729D" stroke-width="0.24" stroke-miterlimit="8" points="77.801,31.784 75.53,30.422 
	77.801,29.059 77.801,31.784 "/>
<polygon fill-rule="evenodd" clip-rule="evenodd" fill="#FFFFFF" points="73.259,29.059 75.53,30.422 73.259,31.784 73.259,29.059 
	"/>
<polygon fill="none" stroke="#43729D" stroke-width="0.24" stroke-miterlimit="8" points="73.259,29.059 75.53,30.422 
	73.259,31.784 73.259,29.059 "/>
<polygon fill-rule="evenodd" clip-rule="evenodd" fill="#FFFFFF" points="73.259,31.557 71.215,30.308 73.259,29.059 73.259,31.557 
	"/>
<polygon fill="none" stroke="#43729D" stroke-width="0.24" stroke-miterlimit="8" points="73.259,31.557 71.215,30.308 
	73.259,29.059 73.259,31.557 "/>
<polygon fill-rule="evenodd" clip-rule="evenodd" fill="#FFFFFF" points="68.717,29.059 70.988,30.308 68.717,31.557 68.717,29.059 
	"/>
<polygon fill="none" stroke="#43729D" stroke-width="0.24" stroke-miterlimit="8" points="68.717,29.059 70.988,30.308 
	68.717,31.557 68.717,29.059 "/>
<polygon fill-rule="evenodd" clip-rule="evenodd" fill="#FFFFFF" points="68.717,31.784 66.446,30.422 68.717,29.059 68.717,31.784 
	"/>
<polygon fill="none" stroke="#43729D" stroke-width="0.24" stroke-miterlimit="8" points="68.717,31.784 66.446,30.422 
	68.717,29.059 68.717,31.784 "/>
<polygon fill-rule="evenodd" clip-rule="evenodd" fill="#FFFFFF" points="64.175,29.059 66.446,30.422 64.175,31.784 64.175,29.059 
	"/>
<polygon fill="none" stroke="#43729D" stroke-width="0.24" stroke-miterlimit="8" points="64.175,29.059 66.446,30.422 
	64.175,31.784 64.175,29.059 "/>
<polygon fill-rule="evenodd" clip-rule="evenodd" fill="#FFFFFF" points="51.003,31.784 51.003,29.059 64.629,29.059 64.629,31.784 
	51.003,31.784 "/>
<polygon fill="none" stroke="#43729D" stroke-width="0.24" stroke-miterlimit="8" points="51.003,31.784 51.003,29.059 
	64.629,29.059 64.629,31.784 51.003,31.784 "/>
<polygon fill-rule="evenodd" clip-rule="evenodd" fill="#FFFFFF" points="64.629,31.784 62.358,30.422 64.629,29.059 64.629,31.784 
	"/>
<polygon fill="none" stroke="#43729D" stroke-width="0.24" stroke-miterlimit="8" points="64.629,31.784 62.358,30.422 
	64.629,29.059 64.629,31.784 "/>
<polygon fill-rule="evenodd" clip-rule="evenodd" fill="#FFFFFF" points="60.087,29.059 62.358,30.422 60.087,31.784 60.087,29.059 
	"/>
<polygon fill="none" stroke="#43729D" stroke-width="0.24" stroke-miterlimit="8" points="60.087,29.059 62.358,30.422 
	60.087,31.784 60.087,29.059 "/>
<polygon fill-rule="evenodd" clip-rule="evenodd" fill="#FFFFFF" points="60.087,31.557 57.816,30.308 60.087,29.059 60.087,31.557 
	"/>
<polygon fill="none" stroke="#43729D" stroke-width="0.24" stroke-miterlimit="8" points="60.087,31.557 57.816,30.308 
	60.087,29.059 60.087,31.557 "/>
<polygon fill-rule="evenodd" clip-rule="evenodd" fill="#FFFFFF" points="55.545,29.059 57.816,30.308 55.545,31.557 55.545,29.059 
	"/>
<polygon fill="none" stroke="#43729D" stroke-width="0.24" stroke-miterlimit="8" points="55.545,29.059 57.816,30.308 
	55.545,31.557 55.545,29.059 "/>
<polygon fill-rule="evenodd" clip-rule="evenodd" fill="#FFFFFF" points="55.545,31.784 53.274,30.422 55.545,29.059 55.545,31.784 
	"/>
<polygon fill="none" stroke="#43729D" stroke-width="0.24" stroke-miterlimit="8" points="55.545,31.784 53.274,30.422 
	55.545,29.059 55.545,31.784 "/>
<polygon fill-rule="evenodd" clip-rule="evenodd" fill="#FFFFFF" points="51.003,29.059 53.274,30.422 51.003,31.784 51.003,29.059 
	"/>
<polygon fill="none" stroke="#43729D" stroke-width="0.24" stroke-miterlimit="8" points="51.003,29.059 53.274,30.422 
	51.003,31.784 51.003,29.059 "/>
<polygon fill-rule="evenodd" clip-rule="evenodd" fill="#FFFFFF" points="37.15,31.784 37.15,29.059 50.776,29.059 50.776,31.784 
	37.15,31.784 "/>
<polygon fill="none" stroke="#43729D" stroke-width="0.24" stroke-miterlimit="8" points="37.15,31.784 37.15,29.059 50.776,29.059 
	50.776,31.784 37.15,31.784 "/>
<polygon fill-rule="evenodd" clip-rule="evenodd" fill="#FFFFFF" points="50.776,31.784 48.732,30.422 50.776,29.059 50.776,31.784 
	"/>
<polygon fill="none" stroke="#43729D" stroke-width="0.24" stroke-miterlimit="8" points="50.776,31.784 48.732,30.422 
	50.776,29.059 50.776,31.784 "/>
<polygon fill-rule="evenodd" clip-rule="evenodd" fill="#FFFFFF" points="46.461,29.059 48.505,30.422 46.461,31.784 46.461,29.059 
	"/>
<polygon fill="none" stroke="#43729D" stroke-width="0.24" stroke-miterlimit="8" points="46.461,29.059 48.505,30.422 
	46.461,31.784 46.461,29.059 "/>
<polygon fill-rule="evenodd" clip-rule="evenodd" fill="#FFFFFF" points="46.461,31.557 44.19,30.308 46.461,29.059 46.461,31.557 
	"/>
<polygon fill="none" stroke="#43729D" stroke-width="0.24" stroke-miterlimit="8" points="46.461,31.557 44.19,30.308 
	46.461,29.059 46.461,31.557 "/>
<polygon fill-rule="evenodd" clip-rule="evenodd" fill="#FFFFFF" points="41.919,29.059 43.963,30.308 41.919,31.557 41.919,29.059 
	"/>
<polygon fill="none" stroke="#43729D" stroke-width="0.24" stroke-miterlimit="8" points="41.919,29.059 43.963,30.308 
	41.919,31.557 41.919,29.059 "/>
<polygon fill-rule="evenodd" clip-rule="evenodd" fill="#FFFFFF" points="41.692,31.784 39.648,30.422 41.692,29.059 41.692,31.784 
	"/>
<polygon fill="none" stroke="#43729D" stroke-width="0.24" stroke-miterlimit="8" points="41.692,31.784 39.648,30.422 
	41.692,29.059 41.692,31.784 "/>
<polygon fill-rule="evenodd" clip-rule="evenodd" fill="#FFFFFF" points="37.15,29.059 39.421,30.422 37.15,31.784 37.15,29.059 "/>
<polygon fill="none" stroke="#43729D" stroke-width="0.24" stroke-miterlimit="8" points="37.15,29.059 39.421,30.422 37.15,31.784 
	37.15,29.059 "/>
<line fill="none" stroke="#5D9BD3" stroke-width="0.24" stroke-miterlimit="8" x1="57.135" y1="31.784" x2="57.135" y2="41.034"/>
</svg>
